<svg width="71" height="17" viewBox="0 0 71 17" fill="none" xmlns="http://www.w3.org/2000/svg">
<path d="M16.2188 0H1.75C1.0625 0 0.71875 0.8125 1.21875 1.28125L7 7.0625V13.5C7 13.75 7.09375 14 7.3125 14.125L9.8125 15.875C10.3125 16.2188 11 15.875 11 15.25V7.0625L16.75 1.28125C17.25 0.8125 16.9062 0 16.2188 0ZM29.6592 8.57715H24.5088V14H22.2852V1.20312H30.415V2.99609H24.5088V6.80176H29.6592V8.57715ZM34.2471 14H32.1113V4.49023H34.2471V14ZM31.9795 2.02051C31.9795 1.69238 32.082 1.41992 32.2871 1.20312C32.498 0.986328 32.7969 0.87793 33.1836 0.87793C33.5703 0.87793 33.8691 0.986328 34.0801 1.20312C34.291 1.41992 34.3965 1.69238 34.3965 2.02051C34.3965 2.34277 34.291 2.6123 34.0801 2.8291C33.8691 3.04004 33.5703 3.14551 33.1836 3.14551C32.7969 3.14551 32.498 3.04004 32.2871 2.8291C32.082 2.6123 31.9795 2.34277 31.9795 2.02051ZM38.8525 14H36.7168V0.5H38.8525V14ZM43.8623 2.17871V4.49023H45.541V6.07227H43.8623V11.3809C43.8623 11.7441 43.9326 12.0078 44.0732 12.1719C44.2197 12.3301 44.4775 12.4092 44.8467 12.4092C45.0928 12.4092 45.3418 12.3799 45.5938 12.3213V13.9736C45.1074 14.1084 44.6387 14.1758 44.1875 14.1758C42.5469 14.1758 41.7266 13.2705 41.7266 11.46V6.07227H40.1621V4.49023H41.7266V2.17871H43.8623ZM51.3682 14.1758C50.0146 14.1758 48.916 13.751 48.0723 12.9014C47.2344 12.0459 46.8154 10.9092 46.8154 9.49121V9.22754C46.8154 8.27832 46.9971 7.43164 47.3604 6.6875C47.7295 5.9375 48.2451 5.35449 48.9072 4.93848C49.5693 4.52246 50.3076 4.31445 51.1221 4.31445C52.417 4.31445 53.416 4.72754 54.1191 5.55371C54.8281 6.37988 55.1826 7.54883 55.1826 9.06055V9.92188H48.9688C49.0332 10.707 49.2939 11.3281 49.751 11.7852C50.2139 12.2422 50.7939 12.4707 51.4912 12.4707C52.4697 12.4707 53.2666 12.0752 53.8818 11.2842L55.0332 12.3828C54.6523 12.9512 54.1426 13.3936 53.5039 13.71C52.8711 14.0205 52.1592 14.1758 51.3682 14.1758ZM51.1133 6.02832C50.5273 6.02832 50.0527 6.2334 49.6895 6.64355C49.332 7.05371 49.1035 7.625 49.0039 8.35742H53.0732V8.19922C53.0264 7.48438 52.8359 6.94531 52.502 6.58203C52.168 6.21289 51.7051 6.02832 51.1133 6.02832ZM61.8271 6.44141C61.5459 6.39453 61.2559 6.37109 60.957 6.37109C59.9785 6.37109 59.3193 6.74609 58.9795 7.49609V14H56.8438V4.49023H58.8828L58.9355 5.55371C59.4512 4.72754 60.166 4.31445 61.0801 4.31445C61.3848 4.31445 61.6367 4.35547 61.8359 4.4375L61.8271 6.44141ZM68.5068 11.416C68.5068 11.0352 68.3486 10.7451 68.0322 10.5459C67.7217 10.3467 67.2031 10.1709 66.4766 10.0186C65.75 9.86621 65.1436 9.67285 64.6572 9.43848C63.5908 8.92285 63.0576 8.17578 63.0576 7.19727C63.0576 6.37695 63.4033 5.69141 64.0947 5.14062C64.7861 4.58984 65.665 4.31445 66.7314 4.31445C67.8682 4.31445 68.7852 4.5957 69.4824 5.1582C70.1855 5.7207 70.5371 6.4502 70.5371 7.34668H68.4014C68.4014 6.93652 68.249 6.59668 67.9443 6.32715C67.6396 6.05176 67.2354 5.91406 66.7314 5.91406C66.2627 5.91406 65.8789 6.02246 65.5801 6.23926C65.2871 6.45605 65.1406 6.74609 65.1406 7.10938C65.1406 7.4375 65.2783 7.69238 65.5537 7.87402C65.8291 8.05566 66.3857 8.24023 67.2236 8.42773C68.0615 8.60938 68.7178 8.8291 69.1924 9.08691C69.6729 9.33887 70.0273 9.64355 70.2559 10.001C70.4902 10.3584 70.6074 10.792 70.6074 11.3018C70.6074 12.1572 70.2529 12.8516 69.5439 13.3848C68.835 13.9121 67.9062 14.1758 66.7578 14.1758C65.9785 14.1758 65.2842 14.0352 64.6748 13.7539C64.0654 13.4727 63.5908 13.0859 63.251 12.5938C62.9111 12.1016 62.7412 11.5713 62.7412 11.0029H64.8154C64.8447 11.5068 65.0352 11.8965 65.3867 12.1719C65.7383 12.4414 66.2041 12.5762 66.7842 12.5762C67.3467 12.5762 67.7744 12.4707 68.0674 12.2598C68.3604 12.043 68.5068 11.7617 68.5068 11.416Z" fill="#3C3D6B"/>
</svg>
